<?xml version="1.0" encoding="UTF-8"?>
<svg id="Layer_1" xmlns="http://www.w3.org/2000/svg" version="1.1" viewBox="0 0 512 512">
  <!-- Generator: Adobe Illustrator 29.5.1, SVG Export Plug-In . SVG Version: 2.1.0 Build 141)  -->
  <defs>
    <style>
      .st0 {
        fill: #092328;
      }
    </style>
  </defs>
  <path class="st0" d="M261.5,135.5c-18.5,0-35.9,7.2-48.9,20.3-13.1,13.1-20.3,30.5-20.3,48.9s7.2,35.9,20.3,49l48.9,48.9,48.9-49c13.1-13.1,20.3-30.5,20.3-48.9s-7.2-35.9-20.3-48.9c-13.1-13.1-30.5-20.3-49-20.3ZM261.5,238.8c-18.5,0-33.6-15-33.6-33.6s15-33.6,33.6-33.6,33.6,15,33.6,33.6-15,33.6-33.6,33.6ZM403.2,347.8l-158.7,158.7h-85.1l201.2-201.2c26.5-26.5,41.1-61.7,41.1-99.2s-14.6-72.7-41.1-99.2c-26.5-26.5-61.7-41.1-99.2-41.1s-72.7,14.6-99.2,41.1c-26.5,26.5-41.1,61.7-41.1,99.2s14.6,72.7,41.1,99.2l87.1,87.1-114.2,114.2H50l114.2-114.2-44.5-44.5c-37.9-37.9-58.7-88.2-58.7-141.8s20.9-103.9,58.7-141.8C157.6,26.4,207.9,5.5,261.5,5.5s103.9,20.9,141.8,58.7c37.9,37.9,58.7,88.2,58.7,141.8s-20.9,103.9-58.7,141.8ZM261.5,380.2l-87.1-87.1c-23.3-23.3-36.1-54.2-36.1-87.1s12.8-63.8,36.1-87.1c23.3-23.3,54.2-36.1,87.1-36.1s63.8,12.8,87.1,36.1c23.3,23.3,36.1,54.2,36.1,87.1s-12.8,63.8-36.1,87.1l-87.1,87.1Z"/>
</svg>