<?xml version="1.0" encoding="UTF-8"?>
<svg id="Layer_1" xmlns="http://www.w3.org/2000/svg" version="1.1" viewBox="0 0 512 512">
  <!-- Generator: Adobe Illustrator 29.5.1, SVG Export Plug-In . SVG Version: 2.1.0 Build 141)  -->
  <defs>
    <style>
      .st0 {
        fill: #092328;
      }
    </style>
  </defs>
  <path class="st0" d="M259.9,169.4c-13.3,0-25.8,5.2-35.2,14.6-9.4,9.4-14.6,21.9-14.6,35.2s5.2,25.8,14.6,35.2l35.2,35.2,35.2-35.2c9.4-9.4,14.6-21.9,14.6-35.2s-5.2-25.8-14.6-35.2c-9.4-9.4-21.9-14.6-35.2-14.6ZM259.9,243.6c-13.3,0-24.1-10.8-24.1-24.1s10.8-24.1,24.1-24.1,24.1,10.8,24.1,24.1-10.8,24.1-24.1,24.1ZM452.6,1H59.4C27.1,1,1,27.1,1,59.4v393.2c0,32.2,26.1,58.4,58.4,58.4h393.2c32.2,0,58.4-26.1,58.4-58.4V59.4c0-32.2-26.1-58.4-58.4-58.4ZM361.8,322l-114,114h-61.2l144.6-144.6c19-19,29.5-44.4,29.5-71.3s-10.5-52.3-29.5-71.3c-19-19-44.4-29.5-71.3-29.5s-52.3,10.5-71.3,29.5c-19,19-29.5,44.4-29.5,71.3s10.5,52.3,29.5,71.3l62.6,62.6-82,82h-61.2l82-82-32-32c-27.2-27.2-42.2-63.4-42.2-101.9s15-74.7,42.2-101.9c27.2-27.2,63.4-42.2,101.9-42.2s74.7,15,101.9,42.2c27.2,27.2,42.2,63.4,42.2,101.9s-15,74.7-42.2,101.9ZM259.9,345.2l-62.6-62.6c-16.7-16.7-25.9-38.9-25.9-62.6s9.2-45.9,25.9-62.6c16.7-16.7,38.9-25.9,62.6-25.9s45.9,9.2,62.6,25.9c16.7,16.7,25.9,38.9,25.9,62.6s-9.2,45.9-25.9,62.6l-62.6,62.6Z"/>
</svg>