<?xml version="1.0" encoding="UTF-8"?>
<svg id="Layer_1" xmlns="http://www.w3.org/2000/svg" version="1.1" viewBox="0 0 512 512">
  <!-- Generator: Adobe Illustrator 29.5.1, SVG Export Plug-In . SVG Version: 2.1.0 Build 141)  -->
  <defs>
    <style>
      .st0 {
        fill: #092328;
      }
    </style>
  </defs>
  <path class="st0" d="M248.6,244.9v97.4c0,21-8.2,40.8-23.1,55.7-48.5,49.5-135.2,13.6-134.5-55.7-.9-42.3,36.4-79.7,78.8-78.8h25.4s0,38.5,0,38.5c-17.5.2-40.8-3-53.8,11.8-15.6,15-15.6,42,0,56.9,15,15.6,42,15.6,56.9,0,13.9-12.5,11.9-32.6,11.8-49.5h0c0-13.1,0-58.8,0-72.7v-3.7c0-12.5,0-42,0-54.1h0c.1-16.9,2.1-36.9-11.8-49.5-15-15.6-42-15.6-56.9,0-15.6,15-15.6,42,0,56.9,13.1,14.8,36.3,11.6,53.8,11.8v38.5s-25.4,0-25.4,0c-104.2-3.5-104.3-154,0-157.6,42.3-.9,79.6,36.4,78.8,78.8v75.1ZM156.2,355.8c-17.1-17.7,8.8-43.5,26.5-26.5,17.1,17.7-8.8,43.5-26.5,26.5ZM182.6,182.6c-17.7,17.1-43.5-8.8-26.5-26.5,17.7-17.1,43.5,8.8,26.5,26.5ZM370.7,198.2c15.6-15,15.6-42,0-56.9-15-15.6-42-15.6-56.9,0-13.9,12.5-11.9,32.6-11.8,49.5h0c0,12.3,0,42.8,0,55.6v2.2c0,13.7,0,59.8,0,72.7h0c-.1,16.9-2.1,36.9,11.8,49.5,15,15.6,42,15.6,56.9,0,15.6-15,15.6-42,0-56.9-13.1-14.8-36.3-11.6-53.8-11.8v-38.5s25.4,0,25.4,0c104.2,3.5,104.3,154,0,157.6-42.3.9-79.6-36.4-78.8-78.8v-94.7s0-77.8,0-77.8c0-21,8.2-40.8,23.1-55.7,29.3-30.6,82.1-30.6,111.4,0,49.5,48.5,13.6,135.2-55.7,134.5h-25.4s0-38.5,0-38.5c17.5-.2,40.8,3,53.8-11.8ZM329.4,156.2c17.7-17.1,43.5,8.8,26.5,26.5-17.7,17.1-43.5-8.8-26.5-26.5ZM329.4,329.4c17.7-17.1,43.5,8.8,26.5,26.5-17.7,17.1-43.5-8.8-26.5-26.5Z"/>
</svg>