<?xml version="1.0" encoding="UTF-8"?>
<svg id="Layer_1" xmlns="http://www.w3.org/2000/svg" version="1.1" viewBox="0 0 512 512">
  <!-- Generator: Adobe Illustrator 29.5.1, SVG Export Plug-In . SVG Version: 2.1.0 Build 141)  -->
  <defs>
    <style>
      .st0 {
        fill: #092328;
      }
    </style>
  </defs>
  <path class="st0" d="M256,181.6c-14.1,0-27.4,5.5-37.4,15.5-10,10-15.5,23.3-15.5,37.4s5.5,27.4,15.5,37.4l37.4,37.4,37.4-37.4c10-10,15.5-23.3,15.5-37.4s-5.5-27.4-15.5-37.4c-10-10-23.3-15.5-37.4-15.5ZM256,258.5c-13.6,0-24.6-11-24.6-24.6s11-24.6,24.6-24.6,24.6,11,24.6,24.6-11,24.6-24.6,24.6ZM452.6,1H59.4C27.1,1,1,27.1,1,59.4v393.2c0,32.2,26.1,58.4,58.4,58.4h393.2c32.2,0,58.4-26.1,58.4-58.4V59.4c0-32.2-26.1-58.4-58.4-58.4ZM329.2,307.8l-73.2,73.2-73.2-73.2c-19.6-19.6-30.3-45.6-30.3-73.2,0-27.7,10.8-53.7,30.3-73.2,19.6-19.6,45.6-30.3,73.2-30.3s53.7,10.8,73.2,30.3c19.6,19.6,30.3,45.6,30.3,73.2s-10.8,53.7-30.3,73.2Z"/>
</svg>