<?xml version="1.0" encoding="UTF-8"?>
<svg id="Layer_1" xmlns="http://www.w3.org/2000/svg" version="1.1" viewBox="0 0 512 512">
  <!-- Generator: Adobe Illustrator 29.5.1, SVG Export Plug-In . SVG Version: 2.1.0 Build 141)  -->
  <defs>
    <style>
      .st0 {
        fill: #21acd2;
      }
    </style>
  </defs>
  <path class="st0" d="M349,343c-35.3,1.1-59.8-21.9-82.1-46.1l30.1-30.1c14.2,13.7,29.9,35,52.1,33.6,23.9.5,45-20.6,44.5-44.5.5-23.9-20.6-45-44.5-44.5-20.8-1-34.7,16.1-47.8,29.4h0c-9.7,9.7-35.1,35.1-45.1,45.1h0c-25.7,26-52.5,58.9-93,56.9-46.8,1-88-40.2-87-87-1-46.8,40.2-88,87-87,35.3-1.1,59.8,21.9,82.1,46.1l-30.1,30.1c-14.2-13.7-29.9-35-52.1-33.6-23.9-.5-45,20.6-44.5,44.5-.5,23.9,20.6,45,44.5,44.5,20.8,1,34.7-16.1,47.8-29.4h0c9.7-9.7,35.1-35.1,45.1-45.1h0c25.7-26,52.5-58.8,93-56.9,46.8-1,88,40.2,87,87,1,46.8-40.2,88-87,87ZM328.9,256c.7-27.2,40.6-27.3,41.3,0-.7,27.2-40.6,27.3-41.3,0ZM183.1,256c-.7,27.2-40.6,27.3-41.3,0,.7-27.2,40.6-27.3,41.3,0Z"/>
</svg>