<?xml version="1.0" encoding="UTF-8"?>
<svg id="Layer_1" xmlns="http://www.w3.org/2000/svg" version="1.1" viewBox="0 0 1024 272.7">
  <!-- Generator: Adobe Illustrator 29.5.1, SVG Export Plug-In . SVG Version: 2.1.0 Build 141)  -->
  <defs>
    <style>
      .st0 {
        fill: #20abd2;
      }

      .st1 {
        fill: #f3f3f1;
      }
    </style>
  </defs>
  <g id="Icon">
    <path class="st1" d="M163.7,64.6c-12.5-12.5-29.1-19.4-46.7-19.4s-34.3,6.9-46.7,19.4c-12.5,12.5-19.4,29.1-19.4,46.7s6.9,34.3,19.4,46.7l46.7,46.7,46.7-46.7c12.5-12.5,19.4-29.1,19.4-46.7s-6.9-34.3-19.4-46.7ZM143.3,136.9l-26.3,26.3-26.3-26.3c-7-7-10.9-16.4-10.9-26.3s3.9-19.3,10.9-26.3c7-7,16.4-10.9,26.3-10.9s19.3,3.9,26.3,10.9c7,7,10.9,16.4,10.9,26.3s-3.9,19.3-10.9,26.3Z"/>
    <circle class="st1" cx="117" cy="110.9" r="18"/>
    <path class="st0" d="M193.1,35.2c20.3,20.3,31.5,47.4,31.5,76.1s-11.2,55.8-31.5,76.1l-85.2,85.2h-45.7l108-108c14.2-14.2,22.1-33.2,22.1-53.3s-7.8-39-22.1-53.3c-14.2-14.2-33.2-22.1-53.3-22.1s-39,7.8-53.3,22.1c-14.2,14.2-22.1,33.2-22.1,53.3s7.8,39,22.1,53.3l46.7,46.7-61.3,61.3H3.5l61.3-61.3-23.9-23.9c-20.3-20.3-31.5-47.4-31.5-76.1s11.2-55.8,31.5-76.1C61.2,14.9,88.2,3.7,117,3.7s55.8,11.2,76.1,31.5Z"/>
  </g>
  <path id="Text" class="st0" d="M391,48.5v65.4c0,1.9-1.1,3-3.1,3h-11.9c-1.7,0-2.8-.6-3.8-1.8l-33.5-41.8v40.6c0,1.9-1.1,3-3.1,3h-12.2c-2,0-3.1-1.1-3.1-3V48.5c0-1.9,1.1-3,3.1-3h11.9c1.7,0,2.8.6,3.8,1.8l33.5,42v-40.8c0-1.9,1.1-3,3.1-3h12.2c2,0,3.1,1.1,3.1,3ZM409.6,116.9h12.1c2,0,3.1-1.1,3.1-3V48.5c0-1.9-1.1-3-3.1-3h-12.1c-2,0-3.1,1.1-3.1,3v65.4c0,1.9,1.1,3,3.1,3ZM443.5,116.9h12.2c2,0,3.1-1.1,3.1-3v-40.6l33.5,41.8c1,1.2,2.2,1.8,3.8,1.8h11.9c2,0,3.1-1.1,3.1-3V48.5c0-1.9-1.1-3-3.1-3h-12.2c-2,0-3.1,1.1-3.1,3v40.8l-33.5-42c-1-1.2-2.2-1.8-3.8-1.8h-11.9c-2,0-3.1,1.1-3.1,3v65.4c0,1.9,1.1,3,3.1,3ZM585.2,45.4h-55.4c-2,0-3.1,1.1-3.1,3v65.4c0,1.9,1.1,3,3.1,3h55.4c2,0,3.1-1.1,3.1-3v-11.1c0-1.9-1.1-3-3.1-3h-40.3v-10.9h24.5c2,0,3.1-1.1,3.1-3v-9.5c0-1.9-1.1-3-3.1-3h-24.5v-10.5h40.3c2,0,3.1-1.1,3.1-3v-11.1c0-1.9-1.1-3-3.1-3ZM698.6,72.3v2.9c0,17.3-7.9,26.4-28.4,26.4h-22.3v12.3c0,1.9-1.1,3-3.1,3h-12.2c-2,0-3.1-1.1-3.1-3V48.5c0-1.9,1.1-3,3.1-3h37.6c20.4,0,28.4,9.5,28.4,26.8ZM680.3,72.4c0-8.6-4.1-9.7-11.7-9.7h-20.6v22h20.6c7.2,0,11.7-1,11.7-9.6v-2.6ZM770.4,45.4h-55.4c-2,0-3.1,1.1-3.1,3v65.4c0,1.9,1.1,3,3.1,3h55.4c2,0,3.1-1.1,3.1-3v-11.1c0-1.9-1.1-3-3.1-3h-40.3v-10.9h24.5c2,0,3.1-1.1,3.1-3v-9.5c0-1.9-1.1-3-3.1-3h-24.5v-10.5h40.3c2,0,3.1-1.1,3.1-3v-11.1c0-1.9-1.1-3-3.1-3ZM864,113.4c.9,2.1,0,3.5-2.4,3.5h-13.8c-1.8,0-3-.8-3.6-2.3l-3.7-8.8h-35.4l-3.7,8.8c-.6,1.5-1.9,2.3-3.6,2.3h-13.8c-2.4,0-3.3-1.4-2.4-3.5l30.4-65.6c.7-1.6,1.9-2.3,3.6-2.3h14.3c1.8,0,2.9.7,3.6,2.3l30.4,65.6ZM834.3,91.2l-11.6-27.4-11.6,27.4h23.1ZM942,45.4h-14.8c-1.7,0-2.9.5-3.8,1.8l-19.6,26.4h-10.7v-25.2c0-1.9-1.1-3-3.1-3h-12.2c-2,0-3.1,1.1-3.1,3v65.4c0,1.9,1.1,3,3.1,3h12.2c2,0,3.1-1.1,3.1-3v-24.6h10.7l19.6,25.8c.9,1.3,2.2,1.8,3.8,1.8h14.8c2.6,0,3.4-1.7,1.9-3.7l-24.8-32.1,24.8-31.9c1.5-2,.7-3.7-1.9-3.7ZM997.4,74.4l-23.3-1.7c-4.2-.3-5.9-1.5-5.9-5.2s2-4.9,6.5-4.9h19.2c3.2,0,5.1,1.2,5.8,4,.5,1.9,1.3,2.9,3.2,2.9h12.3c2,0,3.2-1.1,3.1-3.1-1-13.5-8.8-21-24.4-21h-19.4c-17.4,0-24.5,8.2-24.5,22s6.2,19.2,22,20.5l23.3,1.7c4.2.3,5.9,1.5,5.9,5.3s-2,4.9-6.5,4.9h-20.7c-3.2,0-5.1-1.2-5.8-4-.5-1.9-1.3-2.9-3.2-2.9h-12.3c-2,0-3.2,1.1-3.1,3.1,1,13.5,8.8,21,24.4,21h21c17.4,0,24.5-8.2,24.5-22s-6.3-19.4-22-20.6ZM387.9,155.8h-12.2c-2,0-3.1,1.1-3.1,3v40.8l-33.5-42c-1-1.2-2.2-1.8-3.8-1.8h-11.9c-2,0-3.1,1.1-3.1,3v65.4c0,1.9,1.1,3,3.1,3h12.2c2,0,3.1-1.1,3.1-3v-40.6l33.5,41.8c1,1.2,2.2,1.8,3.8,1.8h11.9c2,0,3.1-1.1,3.1-3v-65.4c0-1.9-1.1-3-3.1-3ZM465.1,155.8h-55.4c-2,0-3.1,1.1-3.1,3v65.4c0,1.9,1.1,3,3.1,3h55.4c2,0,3.1-1.1,3.1-3v-11.1c0-1.9-1.1-3-3.1-3h-40.3v-10.9h24.5c2,0,3.1-1.1,3.1-3v-9.5c0-1.9-1.1-3-3.1-3h-24.5v-10.5h40.3c2,0,3.1-1.1,3.1-3v-11.1c0-1.9-1.1-3-3.1-3ZM579.6,155.8h-13c-1.8,0-2.9.7-3.4,2.5l-13,45.5-11.9-45.4c-.4-1.7-1.7-2.6-3.5-2.6h-12.8c-1.9,0-3.1.9-3.5,2.6l-11.9,45.4-13-45.5c-.5-1.8-1.7-2.5-3.4-2.5h-13c-2.3,0-3.3,1.4-2.6,3.4l21.9,65.5c.5,1.7,1.8,2.5,3.5,2.5h13.3c1.9,0,3.1-.9,3.5-2.6l11.6-43.8,11.6,43.8c.4,1.7,1.7,2.6,3.5,2.6h13.3c1.8,0,3-.8,3.5-2.5l21.9-65.5c.7-2-.3-3.4-2.6-3.4ZM637.4,184.7l-23.3-1.7c-4.2-.3-5.9-1.5-5.9-5.2s2-4.9,6.5-4.9h19.2c3.2,0,5.1,1.2,5.8,4,.5,1.9,1.3,2.9,3.2,2.9h12.3c2,0,3.2-1.1,3.1-3.1-1-13.5-8.8-21-24.4-21h-19.4c-17.4,0-24.5,8.2-24.5,22s6.2,19.2,22,20.5l23.3,1.7c4.2.3,5.9,1.5,5.9,5.3s-2,4.9-6.5,4.9h-20.7c-3.2,0-5.1-1.2-5.8-4-.5-1.9-1.3-2.9-3.2-2.9h-12.3c-2,0-3.2,1.1-3.1,3.1,1,13.5,8.8,21,24.4,21h21c17.4,0,24.5-8.2,24.5-22s-6.3-19.4-22-20.6Z"/>
</svg>