<?xml version="1.0" encoding="UTF-8"?>
<svg id="Layer_1" xmlns="http://www.w3.org/2000/svg" version="1.1" viewBox="0 0 1024 272.7">
  <!-- Generator: Adobe Illustrator 29.5.1, SVG Export Plug-In . SVG Version: 2.1.0 Build 141)  -->
  <defs>
    <style>
      .st0 {
        fill: #092328;
      }
    </style>
  </defs>
  <path class="st0" d="M163.7,64.6c-12.5-12.5-29.1-19.4-46.7-19.4s-34.3,6.9-46.7,19.4c-12.5,12.5-19.4,29.1-19.4,46.7s6.9,34.3,19.4,46.7l46.7,46.7,46.7-46.7c12.5-12.5,19.4-29.1,19.4-46.7s-6.9-34.3-19.4-46.7ZM143.3,136.9l-26.3,26.3-26.3-26.3c-7-7-10.9-16.4-10.9-26.3s3.9-19.3,10.9-26.3c7-7,16.4-10.9,26.3-10.9s19.3,3.9,26.3,10.9c7,7,10.9,16.4,10.9,26.3s-3.9,19.3-10.9,26.3ZM135,110.9c0,10-8.1,18-18,18s-18-8.1-18-18,8.1-18,18-18,18,8.1,18,18ZM193.1,35.2c20.3,20.3,31.5,47.4,31.5,76.1s-11.2,55.8-31.5,76.1l-85.2,85.2h-45.7l108-108c14.2-14.2,22.1-33.2,22.1-53.3s-7.8-39-22.1-53.3c-14.2-14.2-33.2-22.1-53.3-22.1s-39,7.8-53.3,22.1c-14.2,14.2-22.1,33.2-22.1,53.3s7.8,39,22.1,53.3l46.7,46.7-61.3,61.3H3.5l61.3-61.3-23.9-23.9c-20.3-20.3-31.5-47.4-31.5-76.1s11.2-55.8,31.5-76.1C61.2,14.9,88.2,3.7,117,3.7s55.8,11.2,76.1,31.5ZM391,158.8v65.4c0,1.9-1.1,3-3.1,3h-11.9c-1.7,0-2.8-.6-3.8-1.8l-33.5-41.8v40.6c0,1.9-1.1,3-3.1,3h-12.2c-2,0-3.1-1.1-3.1-3v-65.4c0-1.9,1.1-3,3.1-3h11.9c1.7,0,2.8.6,3.8,1.8l33.5,42v-40.8c0-1.9,1.1-3,3.1-3h12.2c2,0,3.1,1.1,3.1,3ZM406.5,113.9V48.5c0-1.9,1.1-3,3.1-3h12.1c2,0,3.1,1.1,3.1,3v65.4c0,1.9-1.1,3-3.1,3h-12.1c-2,0-3.1-1.1-3.1-3ZM391,48.5v65.4c0,1.9-1.1,3-3.1,3h-11.9c-1.7,0-2.8-.6-3.8-1.8l-33.5-41.8v40.6c0,1.9-1.1,3-3.1,3h-12.2c-2,0-3.1-1.1-3.1-3V48.5c0-1.9,1.1-3,3.1-3h11.9c1.7,0,2.8.6,3.8,1.8l33.5,42v-40.8c0-1.9,1.1-3,3.1-3h12.2c2,0,3.1,1.1,3.1,3ZM833.5,47.7c-.7-1.6-1.9-2.3-3.6-2.3h-14.3c-1.8,0-2.9.7-3.6,2.3l-30.4,65.6c-.9,2.1,0,3.5,2.4,3.5h13.8c1.8,0,3-.8,3.6-2.3l3.7-8.8h35.4l3.7,8.8c.6,1.5,1.9,2.3,3.6,2.3h13.8c2.4,0,3.3-1.4,2.4-3.5l-30.4-65.6ZM811.2,91.2l11.6-27.4,11.6,27.4h-23.1ZM440.4,113.9V48.5c0-1.9,1.1-3,3.1-3h11.9c1.7,0,2.8.6,3.8,1.8l33.5,42v-40.8c0-1.9,1.1-3,3.1-3h12.2c2,0,3.1,1.1,3.1,3v65.4c0,1.9-1.1,3-3.1,3h-11.9c-1.7,0-2.8-.6-3.8-1.8l-33.5-41.8v40.6c0,1.9-1.1,3-3.1,3h-12.2c-2,0-3.1-1.1-3.1-3ZM1019.4,94.9c0,13.8-7,22-24.5,22h-21c-15.6,0-23.3-7.5-24.4-21-.1-2,1.1-3.1,3.1-3.1h12.3c1.9,0,2.7,1,3.2,2.9.7,2.7,2.6,4,5.8,4h20.7c4.5,0,6.5-1.2,6.5-4.9s-1.7-5-5.9-5.3l-23.3-1.7c-15.8-1.2-22-7-22-20.5s7-22,24.5-22h19.4c15.6,0,23.3,7.5,24.4,21,.1,2-1.1,3.1-3.1,3.1h-12.3c-1.9,0-2.7-1-3.2-2.9-.7-2.7-2.6-4-5.8-4h-19.2c-4.5,0-6.5,1.2-6.5,4.9s1.7,4.9,5.9,5.2l23.3,1.7c15.7,1.1,22,7.2,22,20.6ZM670.2,45.4h-37.6c-2,0-3.1,1.1-3.1,3v65.4c0,1.9,1.1,3,3.1,3h12.2c2,0,3.1-1.1,3.1-3v-12.3h22.3c20.4,0,28.4-9.1,28.4-26.4v-2.9c0-17.3-7.9-26.8-28.4-26.8ZM680.3,75c0,8.6-4.4,9.6-11.7,9.6h-20.6v-22h20.6c7.5,0,11.7,1.1,11.7,9.7v2.6ZM468.2,158.8v11.1c0,1.9-1.1,3-3.1,3h-40.3v10.5h24.5c2,0,3.1,1.1,3.1,3v9.5c0,1.9-1.1,3-3.1,3h-24.5v10.9h40.3c2,0,3.1,1.1,3.1,3v11.1c0,1.9-1.1,3-3.1,3h-55.4c-2,0-3.1-1.1-3.1-3v-65.4c0-1.9,1.1-3,3.1-3h55.4c2,0,3.1,1.1,3.1,3ZM943.9,49.2l-24.8,31.9,24.8,32.1c1.5,2,.7,3.7-1.9,3.7h-14.8c-1.7,0-2.9-.5-3.8-1.8l-19.6-25.8h-10.7v24.6c0,1.9-1.1,3-3.1,3h-12.2c-2,0-3.1-1.1-3.1-3V48.5c0-1.9,1.1-3,3.1-3h12.2c2,0,3.1,1.1,3.1,3v25.2h10.7l19.6-26.4c.9-1.3,2.2-1.8,3.8-1.8h14.8c2.6,0,3.4,1.7,1.9,3.7ZM773.5,48.5v11.1c0,1.9-1.1,3-3.1,3h-40.3v10.5h24.5c2,0,3.1,1.1,3.1,3v9.5c0,1.9-1.1,3-3.1,3h-24.5v10.9h40.3c2,0,3.1,1.1,3.1,3v11.1c0,1.9-1.1,3-3.1,3h-55.4c-2,0-3.1-1.1-3.1-3V48.5c0-1.9,1.1-3,3.1-3h55.4c2,0,3.1,1.1,3.1,3ZM582.2,159.2l-21.9,65.5c-.5,1.7-1.8,2.5-3.5,2.5h-13.3c-1.9,0-3.1-.9-3.5-2.6l-11.6-43.8-11.6,43.8c-.4,1.7-1.7,2.6-3.5,2.6h-13.3c-1.8,0-3-.8-3.5-2.5l-21.9-65.5c-.7-2,.3-3.4,2.6-3.4h13c1.8,0,2.9.7,3.4,2.5l13,45.5,11.9-45.4c.4-1.7,1.7-2.6,3.5-2.6h12.8c1.9,0,3.1.9,3.5,2.6l11.9,45.4,13-45.5c.5-1.8,1.7-2.5,3.4-2.5h13c2.3,0,3.3,1.4,2.6,3.4ZM659.4,205.3c0,13.8-7,22-24.5,22h-21c-15.6,0-23.3-7.5-24.4-21-.1-2,1.1-3.1,3.1-3.1h12.3c1.9,0,2.7,1,3.2,2.9.7,2.7,2.6,4,5.8,4h20.7c4.5,0,6.5-1.2,6.5-4.9s-1.7-5-5.9-5.3l-23.3-1.7c-15.8-1.2-22-7-22-20.5s7-22,24.5-22h19.4c15.6,0,23.3,7.5,24.4,21,.1,2-1.1,3.1-3.1,3.1h-12.3c-1.9,0-2.7-1-3.2-2.9-.7-2.7-2.6-4-5.8-4h-19.2c-4.5,0-6.5,1.2-6.5,4.9s1.7,4.9,5.9,5.2l23.3,1.7c15.7,1.1,22,7.2,22,20.6ZM588.3,48.5v11.1c0,1.9-1.1,3-3.1,3h-40.3v10.5h24.5c2,0,3.1,1.1,3.1,3v9.5c0,1.9-1.1,3-3.1,3h-24.5v10.9h40.3c2,0,3.1,1.1,3.1,3v11.1c0,1.9-1.1,3-3.1,3h-55.4c-2,0-3.1-1.1-3.1-3V48.5c0-1.9,1.1-3,3.1-3h55.4c2,0,3.1,1.1,3.1,3Z"/>
</svg>